<svg style="display:none">
  <symbol id="icon-facebook" xmlns="http://www.w3.org/2000/svg" viewBox="0 0 30 31" fill="none">
    <path d="M18.4225 16.2639L18.8442 13.5841H16.2462V11.8423C16.2462 11.1096 16.6089 10.3936 17.7687 10.3936H18.9665V8.11168C18.269 8.00045 17.5642 7.94027 16.8577 7.93164C14.7194 7.93164 13.3234 9.21706 13.3234 11.5409V13.5841H10.9531V16.2639H13.3234V22.7454H16.2462V16.2639H18.4225Z" fill="#ffffff"></path>
  </symbol>
  <symbol id="icon-instagram" xmlns="http://www.w3.org/2000/svg" viewBox="0 0 31 31" fill="none">
    <path d="M12.9388 15.3385C12.9388 13.975 14.0436 12.8694 15.4067 12.8694C16.7698 12.8694 17.8751 13.975 17.8751 15.3385C17.8751 16.702 16.7698 17.8077 15.4067 17.8077C14.0436 17.8077 12.9388 16.702 12.9388 15.3385ZM11.6044 15.3385C11.6044 17.4391 13.3067 19.1419 15.4067 19.1419C17.5067 19.1419 19.2089 17.4391 19.2089 15.3385C19.2089 13.2379 17.5067 11.5352 15.4067 11.5352C13.3067 11.5352 11.6044 13.2379 11.6044 15.3385ZM18.4709 11.3844C18.4708 11.5602 18.5229 11.732 18.6205 11.8782C18.718 12.0244 18.8568 12.1384 19.0191 12.2058C19.1814 12.2731 19.3601 12.2908 19.5325 12.2565C19.7048 12.2223 19.8632 12.1377 19.9875 12.0135C20.1118 11.8892 20.1965 11.7309 20.2309 11.5585C20.2652 11.3861 20.2477 11.2074 20.1805 11.0449C20.1133 10.8825 19.9995 10.7436 19.8534 10.6459C19.7073 10.5482 19.5356 10.496 19.3598 10.4959H19.3595C19.1239 10.496 18.898 10.5896 18.7314 10.7562C18.5648 10.9228 18.4711 11.1487 18.4709 11.3844ZM12.4152 21.3675C11.6932 21.3347 11.3009 21.2144 11.0401 21.1127C10.6944 20.9781 10.4477 20.8178 10.1884 20.5587C9.92902 20.2996 9.76849 20.0531 9.63449 19.7073C9.53284 19.4466 9.41259 19.054 9.37977 18.3318C9.34387 17.5511 9.3367 17.3166 9.3367 15.3386C9.3367 13.3606 9.34446 13.1267 9.37977 12.3453C9.41265 11.6232 9.53379 11.2313 9.63449 10.9698C9.76908 10.624 9.92938 10.3773 10.1884 10.1179C10.4474 9.85844 10.6938 9.69786 11.0401 9.56382C11.3007 9.46214 11.6932 9.34185 12.4152 9.30902C13.1957 9.27312 13.4302 9.26595 15.4067 9.26595C17.3832 9.26595 17.6179 9.27371 18.3991 9.30902C19.121 9.34191 19.5128 9.46309 19.7742 9.56382C20.1199 9.69786 20.3666 9.85879 20.6259 10.1179C20.8853 10.3769 21.0452 10.624 21.1798 10.9698C21.2814 11.2305 21.4017 11.6232 21.4345 12.3453C21.4704 13.1267 21.4776 13.3606 21.4776 15.3386C21.4776 17.3166 21.4704 17.5505 21.4345 18.3318C21.4016 19.054 21.2808 19.4465 21.1798 19.7073C21.0452 20.0531 20.8849 20.2999 20.6259 20.5587C20.3669 20.8175 20.1199 20.9781 19.7742 21.1127C19.5135 21.2144 19.121 21.3347 18.3991 21.3675C17.6186 21.4035 17.3841 21.4106 15.4067 21.4106C13.4293 21.4106 13.1955 21.4035 12.4152 21.3675ZM12.3539 7.9765C11.5656 8.01241 11.0269 8.13743 10.5565 8.32053C10.0694 8.50961 9.65694 8.76329 9.24482 9.17487C8.83271 9.58646 8.57976 9.99964 8.39073 10.487C8.20769 10.9578 8.08269 11.4963 8.0468 12.2848C8.01031 13.0746 8.00195 13.327 8.00195 15.3385C8.00195 17.35 8.01031 17.6025 8.0468 18.3922C8.08269 19.1808 8.20769 19.7192 8.39073 20.1901C8.57976 20.6771 8.83277 21.0908 9.24482 21.5022C9.65688 21.9136 10.0694 22.1669 10.5565 22.3565C11.0278 22.5396 11.5656 22.6646 12.3539 22.7005C13.1438 22.7365 13.3958 22.7454 15.4067 22.7454C17.4176 22.7454 17.67 22.737 18.4595 22.7005C19.2479 22.6646 19.7862 22.5396 20.2569 22.3565C20.7437 22.1669 21.1564 21.9138 21.5686 21.5022C21.9807 21.0906 22.2331 20.6771 22.4227 20.1901C22.6057 19.7192 22.7313 19.1807 22.7666 18.3922C22.8025 17.6019 22.8108 17.35 22.8108 15.3385C22.8108 13.327 22.8025 13.0746 22.7666 12.2848C22.7307 11.4962 22.6057 10.9575 22.4227 10.487C22.2331 9.99994 21.98 9.58711 21.5686 9.17487C21.1571 8.76263 20.7437 8.50961 20.2575 8.32053C19.7862 8.13743 19.2478 8.01181 18.4601 7.9765C17.6706 7.94059 17.4182 7.93164 15.4073 7.93164C13.3964 7.93164 13.1438 7.94 12.3539 7.9765Z" fill="#ffffff"></path>
    <path d="M12.9388 15.3385C12.9388 13.975 14.0436 12.8694 15.4067 12.8694C16.7698 12.8694 17.8751 13.975 17.8751 15.3385C17.8751 16.702 16.7698 17.8077 15.4067 17.8077C14.0436 17.8077 12.9388 16.702 12.9388 15.3385ZM11.6044 15.3385C11.6044 17.4391 13.3067 19.1419 15.4067 19.1419C17.5067 19.1419 19.2089 17.4391 19.2089 15.3385C19.2089 13.2379 17.5067 11.5352 15.4067 11.5352C13.3067 11.5352 11.6044 13.2379 11.6044 15.3385ZM18.4709 11.3844C18.4708 11.5602 18.5229 11.732 18.6205 11.8782C18.718 12.0244 18.8568 12.1384 19.0191 12.2058C19.1814 12.2731 19.3601 12.2908 19.5325 12.2565C19.7048 12.2223 19.8632 12.1377 19.9875 12.0135C20.1118 11.8892 20.1965 11.7309 20.2309 11.5585C20.2652 11.3861 20.2477 11.2074 20.1805 11.0449C20.1133 10.8825 19.9995 10.7436 19.8534 10.6459C19.7073 10.5482 19.5356 10.496 19.3598 10.4959H19.3595C19.1239 10.496 18.898 10.5896 18.7314 10.7562C18.5648 10.9228 18.4711 11.1487 18.4709 11.3844ZM12.4152 21.3675C11.6932 21.3347 11.3009 21.2144 11.0401 21.1127C10.6944 20.9781 10.4477 20.8178 10.1884 20.5587C9.92902 20.2996 9.76849 20.0531 9.63449 19.7073C9.53284 19.4466 9.41259 19.054 9.37977 18.3318C9.34387 17.5511 9.3367 17.3166 9.3367 15.3386C9.3367 13.3606 9.34446 13.1267 9.37977 12.3453C9.41265 11.6232 9.53379 11.2313 9.63449 10.9698C9.76908 10.624 9.92938 10.3773 10.1884 10.1179C10.4474 9.85844 10.6938 9.69786 11.0401 9.56382C11.3007 9.46214 11.6932 9.34185 12.4152 9.30902C13.1957 9.27312 13.4302 9.26595 15.4067 9.26595C17.3832 9.26595 17.6179 9.27371 18.3991 9.30902C19.121 9.34191 19.5128 9.46309 19.7742 9.56382C20.1199 9.69786 20.3666 9.85879 20.6259 10.1179C20.8853 10.3769 21.0452 10.624 21.1798 10.9698C21.2814 11.2305 21.4017 11.6232 21.4345 12.3453C21.4704 13.1267 21.4776 13.3606 21.4776 15.3386C21.4776 17.3166 21.4704 17.5505 21.4345 18.3318C21.4016 19.054 21.2808 19.4465 21.1798 19.7073C21.0452 20.0531 20.8849 20.2999 20.6259 20.5587C20.3669 20.8175 20.1199 20.9781 19.7742 21.1127C19.5135 21.2144 19.121 21.3347 18.3991 21.3675C17.6186 21.4035 17.3841 21.4106 15.4067 21.4106C13.4293 21.4106 13.1955 21.4035 12.4152 21.3675ZM12.3539 7.9765C11.5656 8.01241 11.0269 8.13743 10.5565 8.32053C10.0694 8.50961 9.65694 8.76329 9.24482 9.17487C8.83271 9.58646 8.57976 9.99964 8.39073 10.487C8.20769 10.9578 8.08269 11.4963 8.0468 12.2848C8.01031 13.0746 8.00195 13.327 8.00195 15.3385C8.00195 17.35 8.01031 17.6025 8.0468 18.3922C8.08269 19.1808 8.20769 19.7192 8.39073 20.1901C8.57976 20.6771 8.83277 21.0908 9.24482 21.5022C9.65688 21.9136 10.0694 22.1669 10.5565 22.3565C11.0278 22.5396 11.5656 22.6646 12.3539 22.7005C13.1438 22.7365 13.3958 22.7454 15.4067 22.7454C17.4176 22.7454 17.67 22.737 18.4595 22.7005C19.2479 22.6646 19.7862 22.5396 20.2569 22.3565C20.7437 22.1669 21.1564 21.9138 21.5686 21.5022C21.9807 21.0906 22.2331 20.6771 22.4227 20.1901C22.6057 19.7192 22.7313 19.1807 22.7666 18.3922C22.8025 17.6019 22.8108 17.35 22.8108 15.3385C22.8108 13.327 22.8025 13.0746 22.7666 12.2848C22.7307 11.4962 22.6057 10.9575 22.4227 10.487C22.2331 9.99994 21.98 9.58711 21.5686 9.17487C21.1571 8.76263 20.7437 8.50961 20.2575 8.32053C19.7862 8.13743 19.2478 8.01181 18.4601 7.9765C17.6706 7.94059 17.4182 7.93164 15.4073 7.93164C13.3964 7.93164 13.1438 7.94 12.3539 7.9765Z" fill="#ffffff"></path>
  </symbol>
  <symbol id="icon-tiktok" xmlns="http://www.w3.org/2000/svg" viewBox="0 0 31 31" fill="none">
    <path d="M20.2483 11.047C20.1501 10.9963 20.0545 10.9406 19.9619 10.8803C19.6925 10.7023 19.4456 10.4924 19.2263 10.2554C18.6777 9.62768 18.4729 8.99089 18.3974 8.54505H18.4004C18.3374 8.17499 18.3634 7.93555 18.3674 7.93555H15.8687V17.5973C15.8687 17.7271 15.8687 17.8553 15.8633 17.982C15.8633 17.9977 15.8618 18.0123 15.8609 18.0292C15.8609 18.0362 15.8609 18.0435 15.8593 18.0508C15.8593 18.0526 15.8593 18.0544 15.8593 18.0562C15.833 18.4029 15.7219 18.7378 15.5357 19.0314C15.3496 19.325 15.0942 19.5684 14.7919 19.7402C14.4768 19.9194 14.1205 20.0134 13.758 20.0129C12.5939 20.0129 11.6504 19.0637 11.6504 17.8913C11.6504 16.719 12.5939 15.7697 13.758 15.7697C13.9784 15.7695 14.1974 15.8042 14.4069 15.8725L14.41 13.3284C13.7739 13.2462 13.1277 13.2968 12.5122 13.4768C11.8966 13.6569 11.3251 13.9626 10.8336 14.3746C10.4029 14.7488 10.0408 15.1953 9.76367 15.694C9.65819 15.8758 9.26024 16.6065 9.21205 17.7925C9.18174 18.4657 9.3839 19.1631 9.48028 19.4513V19.4574C9.5409 19.6271 9.77579 20.2063 10.1586 20.6946C10.4673 21.0862 10.832 21.4303 11.2409 21.7157V21.7096L11.247 21.7157C12.4566 22.5376 13.7977 22.4837 13.7977 22.4837C14.0299 22.4743 14.8076 22.4837 15.6908 22.0651C16.6704 21.6011 17.2281 20.9098 17.2281 20.9098C17.5844 20.4967 17.8676 20.0259 18.0658 19.5177C18.2919 18.9233 18.3674 18.2105 18.3674 17.9256V12.7998C18.3977 12.818 18.8014 13.085 18.8014 13.085C18.8014 13.085 19.383 13.4578 20.2905 13.7006C20.9415 13.8733 21.8186 13.9097 21.8186 13.9097V11.4292C21.5113 11.4626 20.8872 11.3656 20.2483 11.047Z" fill="#ffffff"></path>
  </symbol>
</svg>
